<svg width="212" height="97" viewBox="0 0 212 97" fill="none" xmlns="http://www.w3.org/2000/svg">
<path d="M5.83938e-05 0H9.24924V18.4922H23.123V0H32.3722V41.6074H23.123V23.1152H9.24924V41.6074H5.83938e-05V0Z" fill="#1F4DA0"/>
<path d="M69.3689 36.9844H64.7443V41.6074H41.6214V36.9844H36.9968V18.4922H41.6214V13.8691H64.7443V18.4922H69.3689V27.7383H46.2459V36.9844H60.1197V32.3613H69.3689V36.9844ZM46.2459 23.1152H60.1197V18.4922H46.2459V23.1152Z" fill="#1F4DA0"/>
<path d="M101.741 41.6074H83.2427V36.9844H87.8672V4.62305H83.2427V0H97.1164V36.9844H101.741V41.6074Z" fill="#1F4DA0"/>
<path d="M138.738 41.6074H120.239V36.9844H124.864V4.62305H120.239V0H134.113V36.9844H138.738V41.6074Z" fill="#1F4DA0"/>
<path d="M152.611 36.9844H147.987V18.4922H152.611V13.8691H175.734V18.4922H180.359V36.9844H175.734V41.6074H152.611V36.9844ZM157.236 36.9844H171.11V32.3613V27.7383V23.1152V18.4922H157.236V23.1152V27.7383V36.9844Z" fill="#1F4DA0"/>
<path d="M4.6246 92.3769H0V69.2617H9.24918V87.7539H13.8738V83.1309H18.4984V87.7539H23.1229V69.2617H32.3721V92.3769H27.7475V97H18.4984V92.3769H13.8738V97H4.6246V92.3769Z" fill="#1F4DA0"/>
<path d="M41.6213 92.3769H36.9967V73.8848H41.6213V69.2617H64.7443V73.8848H69.3688V92.3769H64.7443V97H41.6213V92.3769ZM46.2459 92.3769H60.1197V87.7539V83.1309V78.5078V73.8848H46.2459V78.5078V83.1309V92.3769Z" fill="#1F4DA0"/>
<path d="M92.4918 97H73.9934V92.3769H78.618V73.8848H73.9934V69.2617H83.2426V73.8848H87.8672V69.2617H101.741V73.8848H106.366V83.1309H97.1164V73.8848H92.4918V78.5078H87.8672V92.3769H92.4918V97Z" fill="#1F4DA0"/>
<path d="M138.738 97H120.239V92.3769H124.864V60.0156H120.239V55.3926H134.113V92.3769H138.738V97Z" fill="#1F4DA0"/>
<path d="M180.359 97H171.11V92.3769H166.485V73.8848H161.861V78.5078H157.236V92.3769H166.485V97H152.611V92.3769H147.987V78.5078H152.611V73.8848H157.236V69.2617H166.485V60.0156H161.861V55.3926H175.734V92.3769H180.359V97Z" fill="#1F4DA0"/>
<rect x="193.757" y="92.576" width="18.2429" height="4.42378" fill="#1F4DA0"/>
</svg>
